<mxfile host="app.diagrams.net" modified="2023-11-16T17:39:16.630Z" agent="Mozilla/5.0 (Windows NT 10.0; Win64; x64) AppleWebKit/537.36 (KHTML, like Gecko) Chrome/119.0.0.0 Safari/537.36" etag="Bcelf9dIlPbusX1PKWgd" version="22.1.2" type="onedrive">
  <diagram name="Page-1" id="blctY6UpYAHQ3HbMe5zJ">
    <mxGraphModel grid="0" page="0" gridSize="10" guides="1" tooltips="1" connect="1" arrows="1" fold="1" pageScale="1" pageWidth="827" pageHeight="1169" math="0" shadow="0">
      <root>
        <mxCell id="0" />
        <mxCell id="1" parent="0" />
        <mxCell id="7OpDwPqygRbRJ5roROAY-3" style="edgeStyle=orthogonalEdgeStyle;rounded=0;orthogonalLoop=1;jettySize=auto;html=1;entryX=0;entryY=0.5;entryDx=0;entryDy=0;" edge="1" parent="1" source="7OpDwPqygRbRJ5roROAY-1">
          <mxGeometry relative="1" as="geometry">
            <mxPoint x="230" y="480" as="targetPoint" />
          </mxGeometry>
        </mxCell>
        <mxCell id="7OpDwPqygRbRJ5roROAY-1" value="&lt;font style=&quot;font-size: 16px;&quot;&gt;User&lt;/font&gt;" style="shape=umlActor;verticalLabelPosition=bottom;verticalAlign=top;html=1;outlineConnect=0;" vertex="1" parent="1">
          <mxGeometry x="70" y="450" width="30" height="60" as="geometry" />
        </mxCell>
        <mxCell id="EjKLCzZhwtaYLq5WiVEI-2" style="edgeStyle=none;curved=1;rounded=0;orthogonalLoop=1;jettySize=auto;html=1;entryX=0;entryY=0.5;entryDx=0;entryDy=0;fontSize=12;startSize=8;endSize=8;exitX=1;exitY=0.5;exitDx=0;exitDy=0;" edge="1" parent="1" source="zWKRVqB89jOtBXxnaqcW-1" target="zWKRVqB89jOtBXxnaqcW-3">
          <mxGeometry relative="1" as="geometry">
            <mxPoint x="439" y="480" as="targetPoint" />
            <mxPoint x="350" y="480" as="sourcePoint" />
          </mxGeometry>
        </mxCell>
        <mxCell id="7OpDwPqygRbRJ5roROAY-4" value="&lt;font style=&quot;font-size: 16px;&quot;&gt;Inputs specification into spreadsheet&lt;/font&gt;" style="text;html=1;strokeColor=none;fillColor=none;align=center;verticalAlign=middle;whiteSpace=wrap;rounded=0;" vertex="1" parent="1">
          <mxGeometry x="119" y="422" width="60" height="30" as="geometry" />
        </mxCell>
        <mxCell id="7OpDwPqygRbRJ5roROAY-7" value="&lt;font style=&quot;font-size: 16px;&quot;&gt;Timetable (as a spreadsheet)&lt;/font&gt;" style="shape=document;whiteSpace=wrap;html=1;boundedLbl=1;" vertex="1" parent="1">
          <mxGeometry x="1472" y="440" width="120" height="80" as="geometry" />
        </mxCell>
        <mxCell id="7OpDwPqygRbRJ5roROAY-13" style="edgeStyle=orthogonalEdgeStyle;rounded=0;orthogonalLoop=1;jettySize=auto;html=1;curved=1;exitX=0.45;exitY=0.863;exitDx=0;exitDy=0;exitPerimeter=0;" edge="1" parent="1" source="7OpDwPqygRbRJ5roROAY-7">
          <mxGeometry relative="1" as="geometry">
            <mxPoint x="110" y="510" as="targetPoint" />
            <Array as="points">
              <mxPoint x="1526" y="565" />
              <mxPoint x="110" y="565" />
            </Array>
          </mxGeometry>
        </mxCell>
        <mxCell id="7OpDwPqygRbRJ5roROAY-14" value="&lt;font style=&quot;font-size: 16px;&quot;&gt;Returns timetable doc to user&lt;/font&gt;" style="text;html=1;strokeColor=none;fillColor=none;align=center;verticalAlign=middle;whiteSpace=wrap;rounded=0;" vertex="1" parent="1">
          <mxGeometry x="707" y="573" width="176" height="30" as="geometry" />
        </mxCell>
        <mxCell id="EjKLCzZhwtaYLq5WiVEI-13" style="edgeStyle=none;curved=1;rounded=0;orthogonalLoop=1;jettySize=auto;html=1;fontSize=12;startSize=8;endSize=8;exitX=1;exitY=0.5;exitDx=0;exitDy=0;entryX=0;entryY=0.5;entryDx=0;entryDy=0;" edge="1" parent="1" source="zWKRVqB89jOtBXxnaqcW-3" target="zWKRVqB89jOtBXxnaqcW-4">
          <mxGeometry relative="1" as="geometry">
            <mxPoint x="549" y="480" as="sourcePoint" />
            <mxPoint x="642" y="480" as="targetPoint" />
          </mxGeometry>
        </mxCell>
        <mxCell id="EjKLCzZhwtaYLq5WiVEI-19" style="edgeStyle=none;curved=1;rounded=0;orthogonalLoop=1;jettySize=auto;html=1;entryX=0;entryY=0.5;entryDx=0;entryDy=0;fontSize=12;startSize=8;endSize=8;exitX=1;exitY=0.5;exitDx=0;exitDy=0;" edge="1" parent="1" source="zWKRVqB89jOtBXxnaqcW-4" target="zWKRVqB89jOtBXxnaqcW-5">
          <mxGeometry relative="1" as="geometry">
            <mxPoint x="762" y="481.5254237288136" as="sourcePoint" />
            <mxPoint x="820" y="483" as="targetPoint" />
          </mxGeometry>
        </mxCell>
        <mxCell id="EjKLCzZhwtaYLq5WiVEI-11" style="edgeStyle=none;curved=1;rounded=0;orthogonalLoop=1;jettySize=auto;html=1;entryX=0.5;entryY=0;entryDx=0;entryDy=0;fontSize=12;startSize=8;endSize=8;exitX=0.5;exitY=1;exitDx=0;exitDy=0;exitPerimeter=0;" edge="1" parent="1" source="EjKLCzZhwtaYLq5WiVEI-7" target="zWKRVqB89jOtBXxnaqcW-5">
          <mxGeometry relative="1" as="geometry">
            <mxPoint x="880" y="453" as="targetPoint" />
          </mxGeometry>
        </mxCell>
        <mxCell id="EjKLCzZhwtaYLq5WiVEI-20" style="edgeStyle=none;curved=1;rounded=0;orthogonalLoop=1;jettySize=auto;html=1;entryX=0.5;entryY=0;entryDx=0;entryDy=0;fontSize=12;startSize=8;endSize=8;exitX=0.145;exitY=1;exitDx=0;exitDy=-4.35;exitPerimeter=0;" edge="1" parent="1" source="EjKLCzZhwtaYLq5WiVEI-7" target="zWKRVqB89jOtBXxnaqcW-4">
          <mxGeometry relative="1" as="geometry">
            <mxPoint x="702" y="450" as="targetPoint" />
          </mxGeometry>
        </mxCell>
        <mxCell id="EjKLCzZhwtaYLq5WiVEI-23" style="edgeStyle=none;curved=1;rounded=0;orthogonalLoop=1;jettySize=auto;html=1;entryX=0.5;entryY=0;entryDx=0;entryDy=0;fontSize=12;startSize=8;endSize=8;exitX=0.938;exitY=0.894;exitDx=0;exitDy=0;exitPerimeter=0;" edge="1" parent="1" source="EjKLCzZhwtaYLq5WiVEI-7" target="zWKRVqB89jOtBXxnaqcW-9">
          <mxGeometry relative="1" as="geometry">
            <mxPoint x="1044" y="453" as="targetPoint" />
          </mxGeometry>
        </mxCell>
        <mxCell id="zWKRVqB89jOtBXxnaqcW-15" style="rounded=0;orthogonalLoop=1;jettySize=auto;html=1;entryX=0.5;entryY=0;entryDx=0;entryDy=0;exitX=1;exitY=0.5;exitDx=0;exitDy=0;exitPerimeter=0;" edge="1" parent="1" source="EjKLCzZhwtaYLq5WiVEI-7" target="zWKRVqB89jOtBXxnaqcW-11">
          <mxGeometry relative="1" as="geometry" />
        </mxCell>
        <mxCell id="Bh3peIHUDKKi-m8XKPTr-1" style="rounded=0;orthogonalLoop=1;jettySize=auto;html=1;entryX=0.5;entryY=0;entryDx=0;entryDy=0;" edge="1" parent="1" source="EjKLCzZhwtaYLq5WiVEI-7" target="fi6j9lVJtCNSVQSDU6X5-1">
          <mxGeometry relative="1" as="geometry" />
        </mxCell>
        <mxCell id="EjKLCzZhwtaYLq5WiVEI-7" value="&lt;font style=&quot;font-size: 16px;&quot;&gt;User Data&lt;br&gt;(memory object)&lt;/font&gt;" style="shape=cylinder3;whiteSpace=wrap;html=1;boundedLbl=1;backgroundOutline=1;size=15;fontSize=16;" vertex="1" parent="1">
          <mxGeometry x="653" y="269" width="153.5" height="85" as="geometry" />
        </mxCell>
        <mxCell id="EjKLCzZhwtaYLq5WiVEI-8" style="edgeStyle=none;curved=1;rounded=0;orthogonalLoop=1;jettySize=auto;html=1;entryX=0;entryY=0;entryDx=0;entryDy=56.25;entryPerimeter=0;fontSize=12;startSize=8;endSize=8;exitX=0.5;exitY=0;exitDx=0;exitDy=0;" edge="1" parent="1" source="zWKRVqB89jOtBXxnaqcW-3" target="EjKLCzZhwtaYLq5WiVEI-7">
          <mxGeometry relative="1" as="geometry">
            <mxPoint x="502.0300000000002" y="451.98" as="sourcePoint" />
          </mxGeometry>
        </mxCell>
        <mxCell id="EjKLCzZhwtaYLq5WiVEI-9" value="Creates" style="text;html=1;align=center;verticalAlign=middle;resizable=0;points=[];autosize=1;strokeColor=none;fillColor=none;fontSize=16;" vertex="1" parent="1">
          <mxGeometry x="493" y="347" width="74" height="31" as="geometry" />
        </mxCell>
        <mxCell id="EjKLCzZhwtaYLq5WiVEI-12" value="Passed into" style="text;html=1;align=center;verticalAlign=middle;resizable=0;points=[];autosize=1;strokeColor=none;fillColor=none;fontSize=16;" vertex="1" parent="1">
          <mxGeometry x="625" y="387" width="102" height="31" as="geometry" />
        </mxCell>
        <mxCell id="EjKLCzZhwtaYLq5WiVEI-22" style="edgeStyle=none;curved=1;rounded=0;orthogonalLoop=1;jettySize=auto;html=1;entryX=0;entryY=0.5;entryDx=0;entryDy=0;fontSize=12;startSize=8;endSize=8;exitX=1;exitY=0.5;exitDx=0;exitDy=0;" edge="1" parent="1" source="zWKRVqB89jOtBXxnaqcW-5" target="zWKRVqB89jOtBXxnaqcW-9">
          <mxGeometry relative="1" as="geometry">
            <mxPoint x="940" y="483" as="sourcePoint" />
            <mxPoint x="984" y="483" as="targetPoint" />
          </mxGeometry>
        </mxCell>
        <mxCell id="EjKLCzZhwtaYLq5WiVEI-18" style="edgeStyle=none;curved=1;rounded=0;orthogonalLoop=1;jettySize=auto;html=1;entryX=1;entryY=0.5;entryDx=0;entryDy=0;fontSize=12;startSize=8;endSize=8;" edge="1" parent="1">
          <mxGeometry relative="1" as="geometry">
            <mxPoint x="940" y="483" as="sourcePoint" />
            <mxPoint x="940" y="483" as="targetPoint" />
          </mxGeometry>
        </mxCell>
        <mxCell id="EjKLCzZhwtaYLq5WiVEI-21" value="Passed into" style="text;html=1;align=center;verticalAlign=middle;resizable=0;points=[];autosize=1;strokeColor=none;fillColor=none;fontSize=16;" vertex="1" parent="1">
          <mxGeometry x="729" y="391" width="102" height="31" as="geometry" />
        </mxCell>
        <mxCell id="EjKLCzZhwtaYLq5WiVEI-24" value="Passed into" style="text;html=1;align=center;verticalAlign=middle;resizable=0;points=[];autosize=1;strokeColor=none;fillColor=none;fontSize=16;" vertex="1" parent="1">
          <mxGeometry x="851" y="375" width="102" height="31" as="geometry" />
        </mxCell>
        <mxCell id="zWKRVqB89jOtBXxnaqcW-1" value="&lt;font style=&quot;font-size: 16px;&quot;&gt;Data input spreadsheet&lt;/font&gt;" style="shape=document;whiteSpace=wrap;html=1;boundedLbl=1;" vertex="1" parent="1">
          <mxGeometry x="198" y="440" width="120" height="80" as="geometry" />
        </mxCell>
        <mxCell id="zWKRVqB89jOtBXxnaqcW-3" value="&lt;font style=&quot;font-size: 16px;&quot;&gt;Data extraction&lt;/font&gt;" style="rounded=0;whiteSpace=wrap;html=1;" vertex="1" parent="1">
          <mxGeometry x="354" y="450" width="120" height="60" as="geometry" />
        </mxCell>
        <mxCell id="zWKRVqB89jOtBXxnaqcW-4" value="&lt;font style=&quot;font-size: 16px;&quot;&gt;Soft constraint configuration&lt;/font&gt;" style="rounded=0;whiteSpace=wrap;html=1;" vertex="1" parent="1">
          <mxGeometry x="514" y="450" width="120" height="60" as="geometry" />
        </mxCell>
        <mxCell id="zWKRVqB89jOtBXxnaqcW-5" value="&lt;font style=&quot;font-size: 16px;&quot;&gt;Constraint system configuration&lt;/font&gt;" style="rounded=0;whiteSpace=wrap;html=1;" vertex="1" parent="1">
          <mxGeometry x="679" y="450" width="120" height="60" as="geometry" />
        </mxCell>
        <mxCell id="zWKRVqB89jOtBXxnaqcW-12" style="edgeStyle=orthogonalEdgeStyle;rounded=0;orthogonalLoop=1;jettySize=auto;html=1;entryX=0;entryY=0.5;entryDx=0;entryDy=0;" edge="1" parent="1" source="zWKRVqB89jOtBXxnaqcW-9" target="zWKRVqB89jOtBXxnaqcW-10">
          <mxGeometry relative="1" as="geometry" />
        </mxCell>
        <mxCell id="zWKRVqB89jOtBXxnaqcW-9" value="&lt;font style=&quot;font-size: 16px;&quot;&gt;Feasibility check&lt;/font&gt;" style="rounded=0;whiteSpace=wrap;html=1;" vertex="1" parent="1">
          <mxGeometry x="838" y="450" width="132" height="60" as="geometry" />
        </mxCell>
        <mxCell id="fi6j9lVJtCNSVQSDU6X5-2" style="edgeStyle=orthogonalEdgeStyle;rounded=0;orthogonalLoop=1;jettySize=auto;html=1;exitX=1;exitY=0.5;exitDx=0;exitDy=0;entryX=0;entryY=0.5;entryDx=0;entryDy=0;" edge="1" parent="1" source="zWKRVqB89jOtBXxnaqcW-10" target="fi6j9lVJtCNSVQSDU6X5-1">
          <mxGeometry relative="1" as="geometry" />
        </mxCell>
        <mxCell id="zWKRVqB89jOtBXxnaqcW-10" value="&lt;font style=&quot;font-size: 16px;&quot;&gt;Timetable generator&lt;/font&gt;" style="rounded=0;whiteSpace=wrap;html=1;" vertex="1" parent="1">
          <mxGeometry x="1007" y="450" width="120" height="60" as="geometry" />
        </mxCell>
        <mxCell id="zWKRVqB89jOtBXxnaqcW-14" style="edgeStyle=orthogonalEdgeStyle;rounded=0;orthogonalLoop=1;jettySize=auto;html=1;entryX=0;entryY=0.5;entryDx=0;entryDy=0;" edge="1" parent="1" source="zWKRVqB89jOtBXxnaqcW-11" target="7OpDwPqygRbRJ5roROAY-7">
          <mxGeometry relative="1" as="geometry" />
        </mxCell>
        <mxCell id="zWKRVqB89jOtBXxnaqcW-11" value="&lt;font style=&quot;font-size: 16px;&quot;&gt;Timetable viewer&lt;/font&gt;" style="rounded=0;whiteSpace=wrap;html=1;" vertex="1" parent="1">
          <mxGeometry x="1300" y="450" width="120" height="60" as="geometry" />
        </mxCell>
        <mxCell id="zWKRVqB89jOtBXxnaqcW-16" value="Passed into" style="text;html=1;align=center;verticalAlign=middle;resizable=0;points=[];autosize=1;strokeColor=none;fillColor=none;fontSize=16;" vertex="1" parent="1">
          <mxGeometry x="1031" y="347" width="102" height="31" as="geometry" />
        </mxCell>
        <mxCell id="fi6j9lVJtCNSVQSDU6X5-3" style="edgeStyle=orthogonalEdgeStyle;rounded=0;orthogonalLoop=1;jettySize=auto;html=1;exitX=1;exitY=0.5;exitDx=0;exitDy=0;entryX=0;entryY=0.5;entryDx=0;entryDy=0;" edge="1" parent="1" source="fi6j9lVJtCNSVQSDU6X5-1" target="zWKRVqB89jOtBXxnaqcW-11">
          <mxGeometry relative="1" as="geometry" />
        </mxCell>
        <mxCell id="fi6j9lVJtCNSVQSDU6X5-1" value="&lt;span style=&quot;font-size: 16px;&quot;&gt;Validation and formatting&lt;/span&gt;" style="rounded=0;whiteSpace=wrap;html=1;" vertex="1" parent="1">
          <mxGeometry x="1154" y="450" width="120" height="60" as="geometry" />
        </mxCell>
      </root>
    </mxGraphModel>
  </diagram>
</mxfile>
